<?xml version="1.0" standalone="no"?>
<!DOCTYPE svg PUBLIC "-//W3C//DTD SVG 20010904//EN"
 "http://www.w3.org/TR/2001/REC-SVG-20010904/DTD/svg10.dtd">
<svg version="1.0" xmlns="http://www.w3.org/2000/svg"
 width="24" height="24" viewBox="0 0 24 24"
 preserveAspectRatio="xMidYMid meet">
<g transform="translate(0.000000,276.000000) scale(0.100000,-0.100000)"
fill="#000000" stroke="none">
<path d="M393 1873 c2 -4 107 -232 232 -505 l228 -498 66 0 66 0 160 347 160
348 3 -343 2 -342 45 0 45 0 0 190 0 190 364 0 c361 0 363 0 397 23 64 43 70
67 67 294 -3 225 -6 235 -79 278 -32 19 -55 20 -361 23 l-327 3 -15 -28 c-8
-15 -15 -24 -16 -20 0 5 5 17 11 28 10 19 7 20 -57 17 l-67 -3 -196 -432
c-108 -238 -198 -433 -201 -433 -3 0 -93 195 -201 433 l-196 432 -67 3 c-37 2
-66 -1 -63 -5z m1723 -117 c17 -13 19 -28 19 -184 0 -153 -2 -172 -19 -191
-19 -21 -26 -21 -345 -21 -179 0 -331 4 -338 8 -24 15 -33 67 -33 197 0 130 9
182 33 197 7 4 159 8 338 8 265 0 329 -3 345 -14z m-730 -33 c-8 -15 -15 -25
-16 -21 0 12 23 58 27 54 3 -2 -2 -17 -11 -33z m-60 -130 c-8 -15 -15 -25 -16
-21 0 12 23 58 27 54 3 -2 -2 -17 -11 -33z"/>
<path d="M225 1467 c-218 -198 -220 -200 -220 -241 l0 -41 230 -143 c127 -79
238 -148 248 -153 15 -8 17 -5 17 25 0 34 -2 36 -225 173 -123 76 -224 141
-222 145 1 4 93 88 205 188 111 100 202 187 201 193 -5 61 -7 60 -234 -146z"/>
<path d="M2290 1626 c0 -33 7 -40 209 -192 115 -87 208 -161 206 -165 -3 -3
-99 -75 -215 -160 -201 -147 -210 -154 -210 -186 0 -25 4 -32 13 -27 6 4 112
81 235 172 l222 163 0 43 0 43 -217 164 c-120 91 -224 169 -230 173 -10 5 -13
-2 -13 -28z"/>
</g>
</svg>
