<?xml version="1.0" standalone="no"?>
<!DOCTYPE svg PUBLIC "-//W3C//DTD SVG 20010904//EN"
 "http://www.w3.org/TR/2001/REC-SVG-20010904/DTD/svg10.dtd">
<svg version="1.0" xmlns="http://www.w3.org/2000/svg"
 width="24" height="24" viewBox="0 0 24 24"
 preserveAspectRatio="xMidYMid meet">
<metadata>
Created by potrace 1.11, written by Peter Selinger 2001-2013
</metadata>
<g transform="translate(0.000000,1412.000000) scale(0.100000,-0.100000)"
fill="#000000" stroke="none">
<path d="M6352 11308 c0 -13 -16 -88 -36 -168 -21 -80 -39 -156 -42 -170 -2
-14 -7 -32 -10 -40 -3 -8 -8 -26 -10 -39 -3 -14 -14 -56 -24 -95 -11 -39 -21
-82 -24 -96 -2 -14 -28 -115 -56 -225 -28 -110 -53 -211 -56 -225 -3 -14 -12
-50 -20 -80 -8 -30 -17 -64 -19 -75 -10 -42 -15 -62 -34 -132 -10 -40 -17 -73
-14 -73 3 0 1 -6 -4 -12 -6 -7 -11 -20 -11 -28 0 -8 -8 -40 -17 -70 -9 -30
-18 -64 -20 -75 -1 -11 -13 -56 -24 -100 -12 -44 -23 -89 -25 -100 -2 -11 -7
-27 -10 -35 -3 -8 -8 -26 -10 -40 -3 -14 -10 -43 -16 -65 -6 -22 -13 -51 -16
-65 -9 -40 -10 -43 -23 -90 -7 -25 -15 -53 -17 -62 -9 -39 -13 -58 -44 -178
-18 -69 -34 -133 -36 -142 -2 -10 -7 -28 -10 -40 -3 -13 -7 -31 -8 -40 -1 -10
-5 -21 -9 -24 -4 -4 -7 -15 -7 -25 0 -10 -5 -30 -11 -46 -7 -15 -13 -37 -14
-48 -3 -23 -5 -32 -46 -194 -17 -68 -33 -131 -34 -140 -2 -9 -4 -18 -6 -21 -1
-3 -3 -9 -4 -15 -1 -5 -4 -17 -8 -25 -9 -24 -28 -103 -32 -130 -2 -14 -4 -27
-5 -30 -1 -3 -2 -8 -1 -12 0 -5 -3 -8 -7 -8 -4 0 -9 -12 -10 -26 -1 -14 -9
-50 -18 -79 -8 -30 -17 -67 -20 -82 -3 -15 -13 -57 -24 -93 -14 -52 -40 -155
-45 -180 -1 -3 -4 -14 -8 -25 -3 -11 -8 -31 -11 -45 -8 -39 -37 -153 -43 -170
-6 -15 -7 -20 -18 -77 -3 -18 -9 -33 -13 -33 -4 0 -8 -12 -8 -27 -1 -16 -7
-46 -13 -68 -6 -22 -14 -51 -17 -65 -2 -14 -9 -38 -14 -55 -12 -39 -122 -476
-125 -495 -1 -8 -5 -22 -8 -30 -3 -8 -13 -44 -22 -80 -9 -36 -32 -128 -51
-205 -19 -77 -38 -147 -41 -155 -3 -8 -6 -18 -5 -22 1 -4 -5 -25 -13 -47 -8
-23 -12 -41 -10 -41 3 0 0 -11 -5 -25 -5 -14 -12 -36 -14 -48 -2 -12 -14 -60
-26 -107 -12 -47 -24 -92 -26 -100 -2 -8 -13 -51 -24 -95 -11 -44 -23 -87 -25
-95 -33 -136 -55 -221 -64 -247 -5 -18 -7 -33 -4 -33 3 0 0 -7 -7 -15 -7 -8
-10 -15 -6 -15 3 0 1 -11 -4 -26 -6 -14 -12 -39 -15 -56 -10 -54 -21 -64 -30
-27 -4 19 -9 39 -11 44 -1 6 -5 19 -8 30 -3 11 -12 47 -21 79 -8 33 -17 67
-19 75 -2 9 -6 23 -9 31 -5 15 -23 83 -107 410 -23 91 -45 172 -48 180 -3 8
-6 22 -8 30 -2 8 -24 92 -49 185 -26 94 -48 180 -51 193 -2 12 -16 64 -30 115
-25 89 -42 156 -49 187 -2 8 -4 17 -5 20 -1 3 -3 10 -5 15 -1 6 -3 12 -4 15
-2 3 -4 12 -6 20 -2 8 -17 67 -33 130 -17 63 -45 169 -62 235 -17 66 -33 127
-37 135 -3 8 -7 24 -8 35 -1 11 -6 31 -10 45 -5 14 -10 30 -12 35 -5 19 -25
100 -28 115 -2 8 -4 15 -5 15 -1 0 -4 11 -7 25 -6 31 -8 41 -16 60 -5 13 -16
56 -22 85 -2 6 -13 46 -25 90 -12 44 -23 87 -25 95 -2 8 -13 51 -24 95 -12 44
-24 88 -26 98 -3 9 -7 25 -10 35 -9 33 -26 97 -29 112 -2 8 -20 76 -39 150
-20 74 -48 180 -62 235 -14 55 -32 121 -40 148 -8 26 -15 51 -16 55 -1 4 -3
12 -4 17 -2 6 -6 21 -9 35 -2 14 -19 77 -36 140 -17 63 -33 126 -36 140 -3 14
-7 32 -9 40 -2 8 -4 15 -5 15 -1 0 -3 7 -5 15 -2 8 -9 33 -15 55 -6 22 -13 49
-15 60 -3 11 -20 76 -39 145 -18 69 -37 141 -42 160 -10 44 -8 37 -23 90 -7
25 -15 52 -17 60 -28 120 -61 237 -69 242 -5 4 -7 8 -3 8 3 0 -1 26 -9 58 -8
31 -17 64 -18 72 -2 8 -8 30 -14 48 -5 18 -10 34 -11 37 0 3 -2 10 -4 17 -3 7
-7 24 -9 38 -3 14 -15 61 -27 105 -12 44 -23 87 -25 95 -2 8 -15 60 -30 115
-15 55 -30 109 -32 120 -4 18 -7 27 -13 47 -5 19 -31 115 -35 128 -2 8 -8 33
-13 55 -6 22 -18 67 -27 100 -16 58 -21 75 -29 113 -2 9 -11 44 -20 77 -9 33
-18 67 -20 75 -2 8 -9 33 -15 55 l-10 40 -623 -2 c-343 -1 -661 -4 -708 -6
-97 -3 -94 1 -65 -102 9 -33 18 -67 20 -75 10 -41 77 -283 95 -340 10 -36 21
-76 24 -90 3 -14 21 -81 41 -150 19 -69 37 -134 39 -145 3 -11 10 -36 16 -55
6 -19 13 -46 16 -60 3 -14 8 -34 11 -45 4 -11 8 -22 8 -25 1 -3 7 -25 14 -50
7 -25 15 -52 17 -60 1 -8 17 -64 34 -125 17 -60 33 -117 35 -125 2 -8 15 -58
30 -110 15 -52 36 -129 46 -170 21 -79 31 -114 48 -168 5 -18 10 -35 10 -37 1
-3 1 -6 2 -7 0 -2 2 -10 4 -18 2 -8 10 -40 18 -70 72 -258 110 -397 111 -405
1 -5 4 -14 7 -20 4 -5 10 -28 14 -50 5 -22 9 -42 10 -45 12 -44 29 -100 35
-120 4 -14 18 -63 30 -110 12 -47 25 -92 28 -100 3 -8 6 -20 7 -25 2 -6 22
-80 45 -165 23 -85 43 -159 45 -165 1 -5 4 -17 7 -25 3 -8 18 -60 32 -115 49
-184 58 -220 64 -235 8 -22 8 -23 16 -55 4 -16 14 -52 22 -80 8 -27 16 -59 19
-70 2 -11 11 -45 20 -75 9 -30 18 -62 20 -70 2 -8 13 -50 25 -92 11 -43 23
-85 25 -95 2 -10 13 -49 25 -88 11 -38 22 -79 25 -90 2 -11 13 -51 25 -90 12
-38 23 -79 25 -90 2 -11 8 -36 15 -55 6 -19 13 -46 16 -59 3 -13 17 -63 31
-110 14 -47 27 -95 28 -107 1 -11 5 -26 9 -33 4 -6 9 -22 11 -34 3 -21 17 -70
65 -237 11 -41 23 -88 26 -105 2 -16 9 -32 14 -33 6 -2 8 -7 5 -12 -3 -4 2
-27 10 -49 8 -23 16 -54 19 -69 2 -15 5 -27 6 -27 1 0 3 -7 5 -15 2 -8 10 -40
19 -70 8 -30 20 -73 26 -95 6 -22 17 -62 25 -90 9 -27 17 -60 20 -72 8 -35 12
-52 35 -133 12 -41 23 -82 25 -90 2 -8 4 -15 5 -15 1 0 3 -7 5 -15 2 -8 11
-42 20 -75 9 -33 18 -69 21 -79 2 -11 10 -40 18 -65 9 -25 20 -64 25 -86 9
-35 22 -84 36 -135 2 -8 9 -31 15 -50 6 -19 13 -46 16 -60 3 -14 11 -45 18
-70 17 -55 42 -144 52 -185 10 -40 11 -45 13 -47 2 -2 5 -14 8 -28 6 -30 8
-41 15 -60 8 -21 34 -111 59 -205 11 -44 25 -96 30 -115 5 -19 11 -42 13 -50
10 -37 37 -130 52 -180 9 -30 17 -64 19 -75 1 -11 5 -27 9 -35 8 -20 86 -303
97 -355 5 -22 12 -47 16 -55 3 -8 8 -24 10 -35 6 -28 9 -38 16 -55 4 -8 9 -26
11 -40 4 -22 30 -120 43 -160 2 -8 4 -15 3 -15 -2 0 32 -113 41 -137 10 -26
12 -26 92 -24 45 1 90 -2 100 -6 9 -5 17 -5 17 -1 0 10 332 9 348 -1 7 -4 12
-4 12 1 0 4 101 8 225 8 124 0 225 -4 225 -8 0 -5 5 -5 12 -1 17 11 100 12
121 2 9 -5 17 -5 17 -1 0 5 55 7 123 7 l122 -2 54 191 c29 106 54 199 56 208
2 8 17 63 34 121 16 58 32 116 35 129 3 13 12 49 21 79 19 65 15 51 60 215 20
72 45 164 56 205 11 41 34 122 50 180 17 58 32 112 34 120 1 8 9 35 16 60 7
25 13 47 14 50 1 3 7 25 14 50 7 25 15 56 18 69 2 14 7 29 10 34 3 6 7 20 9
31 2 12 12 53 24 91 12 39 24 84 27 100 3 17 8 37 13 45 7 13 33 115 35 132 0
3 3 10 8 14 4 4 7 15 7 25 0 9 7 39 15 65 22 71 76 265 81 293 3 14 7 28 10
33 3 5 7 19 10 32 2 13 16 64 30 112 14 49 27 96 29 104 6 29 56 215 62 230 3
8 7 23 9 32 3 14 16 61 66 236 7 23 15 42 19 42 4 0 7 -201 7 -447 1 -247 1
-630 2 -853 0 -223 0 -409 -1 -415 0 -5 0 -28 1 -50 1 -22 2 -388 3 -812 l1
-773 851 0 851 0 0 1386 c-1 762 2 1388 7 1391 4 2 175 6 380 9 618 7 874 13
1087 29 57 4 186 21 235 32 17 3 39 7 50 9 11 1 20 3 20 4 0 1 7 3 16 5 9 1
42 10 73 19 31 9 58 17 61 17 2 0 28 10 57 20 29 11 76 29 103 38 73 26 317
150 323 163 2 4 18 15 35 23 39 19 237 164 294 216 24 22 47 39 53 39 6 0 8 5
5 10 -3 6 -2 10 3 10 27 0 276 271 405 440 42 55 157 238 157 249 0 5 3 11 8
13 18 8 175 371 175 405 0 7 4 13 9 13 4 0 8 5 8 12 0 11 44 163 57 198 3 8 8
24 10 35 3 11 6 25 7 30 2 6 6 24 10 40 4 17 10 37 13 45 3 8 7 25 9 38 2 19
19 102 31 152 2 8 6 31 9 50 2 19 7 46 9 60 15 80 34 218 41 300 9 95 11 604
3 632 -4 16 -3 30 2 34 5 3 6 10 3 16 -4 5 -8 33 -10 62 -6 77 -13 148 -18
178 -4 25 -7 45 -23 138 -10 63 -34 170 -42 192 -4 12 -7 31 -6 41 2 9 -1 17
-7 17 -6 0 -8 6 -5 14 3 7 0 19 -6 25 -6 6 -8 11 -5 11 4 0 0 16 -8 35 -8 19
-14 36 -13 37 0 2 -2 10 -5 18 -2 8 -12 40 -22 70 -9 30 -20 60 -24 65 -4 6
-13 28 -20 50 -18 57 -132 287 -183 367 -115 184 -288 381 -445 504 -26 21
-52 43 -57 48 -11 11 -21 18 -94 64 -24 15 -50 33 -57 40 -8 7 -14 10 -14 5 0
-4 -4 -2 -9 5 -11 17 -117 74 -276 147 -68 32 -283 110 -328 120 -12 2 -40 9
-62 15 -45 13 -52 14 -153 35 -41 8 -78 17 -83 20 -5 4 -35 8 -66 10 -32 2
-58 4 -58 5 0 4 -142 11 -290 14 -93 3 -172 5 -175 6 -3 1 -9 1 -15 0 -26 -7
-163 -5 -183 2 -13 4 -21 5 -19 0 3 -4 -43 -6 -101 -4 -146 3 -193 3 -203 -4
-5 -3 -9 -2 -9 3 0 4 -535 9 -1189 11 l-1188 3 -1 -23z m2109 -1563 c559 -12
658 -18 794 -51 88 -22 90 -22 93 -24 1 -2 6 -3 11 -4 5 0 13 -4 17 -8 4 -5
14 -8 22 -8 26 0 164 -70 231 -117 63 -44 201 -175 201 -191 0 -4 10 -19 23
-33 28 -31 40 -53 93 -159 40 -82 98 -249 89 -258 -2 -3 0 -12 5 -22 16 -30
25 -151 25 -340 0 -183 -9 -290 -30 -380 -3 -14 -8 -38 -10 -55 -3 -24 -27
-105 -69 -240 -33 -106 -130 -265 -217 -355 -59 -61 -139 -126 -166 -134 -13
-4 -23 -11 -23 -16 0 -7 -29 -18 -47 -18 -3 0 -9 -4 -12 -9 -3 -5 -33 -20 -66
-32 -33 -13 -69 -27 -80 -31 -22 -10 -54 -19 -82 -24 -10 -2 -36 -9 -58 -14
-109 -28 -300 -38 -907 -47 -235 -3 -236 -3 -240 18 -1 12 -3 591 -2 1287 l0
1265 40 5 c21 3 42 5 45 3 3 -1 147 -5 320 -8z m-2111 -3595 c0 -5 -5 -10 -11
-10 -5 0 -7 5 -4 10 3 6 8 10 11 10 2 0 4 -4 4 -10z"/>
<path d="M2385 8034 c-97 -47 -260 -121 -268 -122 -4 -1 -24 -10 -45 -21 -60
-31 -116 -55 -124 -53 -5 1 -8 -2 -8 -8 0 -5 -4 -10 -9 -10 -5 0 -42 -15 -83
-34 -40 -18 -98 -45 -128 -59 -87 -39 -163 -74 -395 -182 -33 -15 -89 -41
-125 -57 -36 -16 -78 -35 -95 -43 -202 -96 -272 -128 -282 -128 -7 0 -13 -4
-13 -9 0 -4 -4 -8 -10 -8 -5 0 -38 -13 -72 -30 -34 -16 -66 -30 -71 -30 -5 0
-22 -9 -38 -21 -16 -11 -29 -18 -29 -14 0 3 -19 -5 -43 -17 -23 -12 -44 -22
-47 -23 -3 0 -30 -12 -60 -27 -30 -14 -86 -41 -125 -58 -38 -18 -97 -44 -130
-59 -33 -16 -87 -40 -121 -55 l-60 -28 0 -335 1 -336 50 -23 c91 -43 229 -105
290 -131 33 -14 64 -29 69 -34 6 -5 18 -9 28 -9 10 0 18 -4 18 -10 0 -5 5 -10
12 -10 6 0 30 -8 52 -19 144 -66 211 -96 215 -97 4 0 46 -19 95 -42 49 -23 91
-42 93 -42 2 0 34 -15 71 -33 37 -18 70 -34 74 -36 4 -1 29 -12 55 -24 27 -11
50 -21 53 -22 3 0 25 -10 50 -22 46 -22 161 -75 170 -78 3 -1 26 -11 53 -23
26 -12 68 -32 95 -44 26 -12 49 -22 52 -23 3 0 25 -11 50 -22 25 -12 48 -21
53 -22 4 0 20 -7 35 -15 28 -16 239 -114 247 -116 5 0 73 -31 200 -89 33 -16
76 -35 95 -44 19 -8 61 -27 92 -41 31 -14 61 -26 66 -26 6 0 10 123 9 329 l-1
329 -185 77 c-102 43 -210 88 -240 101 -29 13 -60 24 -67 24 -8 0 -14 5 -14
10 0 6 -6 10 -12 10 -10 0 -163 61 -323 129 -11 5 -31 13 -45 19 -14 5 -41 17
-60 25 -36 16 -91 39 -100 42 -12 4 -49 20 -105 45 -33 14 -62 27 -65 27 -3 0
-23 8 -45 18 -22 9 -56 24 -75 32 -19 8 -44 18 -55 23 -11 4 -65 27 -120 50
-55 23 -104 43 -110 45 -5 1 -28 10 -50 19 -87 38 -101 44 -120 51 -18 6 -16
8 15 22 73 31 85 36 90 38 3 1 32 14 65 29 62 28 84 38 170 76 73 32 104 45
165 73 107 47 345 152 350 153 3 0 32 13 65 28 147 68 172 79 210 94 22 8 44
19 49 24 6 4 18 8 28 8 10 0 18 5 18 10 0 6 6 10 14 10 8 0 47 15 88 34 40 18
127 57 193 86 66 28 148 65 182 81 34 16 67 29 72 29 12 0 12 0 14 123 1 48
-2 87 -6 87 -4 0 -4 8 0 18 10 19 9 343 -1 367 -3 8 -2 15 3 15 7 0 4 70 -3
76 0 1 -23 -9 -51 -22z"/>
<path d="M11817 7743 c1 -175 2 -320 2 -324 1 -8 89 -49 106 -49 8 0 15 -4 15
-10 0 -5 6 -10 13 -10 7 0 63 -22 123 -48 213 -95 379 -167 384 -168 3 0 32
-13 65 -28 33 -15 119 -53 190 -83 72 -30 135 -58 140 -61 6 -4 16 -7 24 -9 8
-1 18 -8 22 -15 5 -7 9 -10 9 -6 0 4 30 -7 68 -23 79 -36 104 -46 115 -47 4 0
18 -7 30 -14 12 -8 40 -22 62 -30 36 -15 134 -57 210 -93 17 -7 49 -21 73 -31
38 -16 56 -34 33 -34 -5 0 -49 -18 -98 -41 -48 -23 -104 -48 -123 -56 -19 -8
-42 -19 -50 -24 -8 -5 -26 -13 -40 -19 -14 -5 -38 -16 -53 -25 -16 -8 -35 -15
-43 -15 -8 0 -14 -4 -14 -10 0 -5 -6 -10 -14 -10 -8 0 -67 -25 -131 -55 -63
-30 -117 -55 -119 -55 -2 0 -52 -22 -110 -50 -58 -27 -107 -49 -109 -48 -1 0
-22 -10 -47 -23 -25 -13 -47 -23 -50 -24 -3 0 -25 -10 -50 -22 -25 -12 -71
-33 -102 -47 -127 -57 -209 -95 -363 -167 -27 -12 -52 -24 -55 -24 -3 -1 -28
-12 -57 -25 l-52 -22 1 -334 c0 -184 3 -334 7 -334 4 0 11 3 15 8 4 4 11 7 14
8 4 0 43 18 87 39 44 21 83 38 88 37 4 -1 7 2 7 8 0 5 4 10 10 10 5 0 64 26
132 59 68 32 177 85 243 116 66 32 174 83 240 115 66 32 167 80 225 108 58 27
164 78 235 112 72 34 166 79 210 100 44 21 159 76 255 122 96 46 222 106 279
134 57 27 136 65 175 84 l71 35 1 329 0 329 -115 54 c-64 30 -147 70 -186 88
-38 18 -115 54 -170 81 -55 26 -102 49 -105 49 -13 4 -66 28 -200 93 -234 112
-265 126 -272 124 -5 -1 -8 3 -8 8 0 6 -4 10 -9 10 -9 0 -86 35 -291 132 -58
28 -139 66 -180 85 -41 19 -109 51 -150 71 -41 20 -77 37 -80 37 -3 1 -45 21
-95 45 -49 24 -92 44 -95 45 -3 1 -45 21 -95 44 -130 63 -237 111 -244 111 -3
0 -5 -143 -4 -317z"/>
</g>
</svg>
